<?xml version="1.0" encoding="utf-8"?>
<!-- Generator: Adobe Illustrator 23.0.5, SVG Export Plug-In . SVG Version: 6.00 Build 0)  -->
<svg version="1.1" id="Слой_1" xmlns="http://www.w3.org/2000/svg" xmlns:xlink="http://www.w3.org/1999/xlink" x="0px" y="0px"
	 viewBox="0 0 131.37 131.37" style="enable-background:new 0 0 131.37 131.37;" xml:space="preserve">
<style type="text/css">
	.st0{fill:#16535E;}
	.st1{fill:#FFFFFF;stroke:#16535E;stroke-width:3;stroke-miterlimit:10;}
	.st2{fill:none;stroke:#FFFFFF;stroke-width:4;stroke-miterlimit:10;}
	.st3{fill:#16535E;stroke:#FFFFFF;stroke-width:3;stroke-miterlimit:10;}
</style>
<g>
	<path class="st0" d="M96.57,116.09H34.8c-2.35,0-4.25-1.9-4.25-4.25v-85.2c0-2.35,1.9-4.25,4.25-4.25h61.77
		c2.35,0,4.25,1.9,4.25,4.25v85.2C100.82,114.19,98.92,116.09,96.57,116.09z"/>
	<path class="st1" d="M52.26,54.78h-8.88c-0.78,0-1.41-0.63-1.41-1.41v-8.88c0-0.78,0.63-1.41,1.41-1.41h8.88
		c0.78,0,1.41,0.63,1.41,1.41v8.88C53.67,54.15,53.04,54.78,52.26,54.78z"/>
	<path class="st1" d="M52.24,76.14h-8.86c-0.79,0-1.43-0.64-1.43-1.43v-8.86c0-0.79,0.64-1.43,1.43-1.43h8.86
		c0.79,0,1.43,0.64,1.43,1.43v8.86C53.67,75.5,53.03,76.14,52.24,76.14z"/>
	<path class="st1" d="M52.26,97.5h-8.9c-0.78,0-1.41-0.63-1.41-1.41v-8.9c0-0.78,0.63-1.41,1.41-1.41h8.9
		c0.78,0,1.41,0.63,1.41,1.41v8.9C53.67,96.87,53.04,97.5,52.26,97.5z"/>
	<line class="st2" x1="63.99" y1="48.93" x2="87.49" y2="48.93"/>
	<line class="st2" x1="63.99" y1="71" x2="87.49" y2="71"/>
	<line class="st2" x1="64.13" y1="91.64" x2="87.2" y2="91.64"/>
	<path class="st3" d="M86.47,28.65H44.9c-1.03,0-1.72-1.07-1.3-2.01l4.08-9.03c0.23-0.51,0.74-0.84,1.3-0.84h34.26
		c0.6,0,1.14,0.38,1.34,0.94l3.24,9.03C88.14,27.68,87.45,28.65,86.47,28.65z"/>
</g>
</svg>
