<?xml version="1.0" encoding="utf-8"?>
<!-- Generator: Adobe Illustrator 23.0.5, SVG Export Plug-In . SVG Version: 6.00 Build 0)  -->
<svg version="1.1" id="Слой_1" xmlns="http://www.w3.org/2000/svg" xmlns:xlink="http://www.w3.org/1999/xlink" x="0px" y="0px"
	 viewBox="0 0 131.37 131.37" style="enable-background:new 0 0 131.37 131.37;" xml:space="preserve">
<style type="text/css">
	.st0{fill:#16535E;}
	.st1{fill:#FFFFFF;}
</style>
<g>
	<circle class="st0" cx="65.69" cy="35.99" r="20.3"/>
	<path class="st0" d="M28.3,115.69c0,0-6.76-60.41,37.44-60.41c43.11,0,37.45,60.41,37.45,60.41H28.3z"/>
	<path class="st1" d="M71.4,109.73H59.97c-0.83,0-1.48-0.71-1.4-1.54l3.84-40.86c0.07-0.72,0.68-1.28,1.4-1.28h3.69
		c0.73,0,1.33,0.55,1.4,1.28l3.9,40.86C72.88,109.02,72.23,109.73,71.4,109.73z"/>
	<path class="st1" d="M71.93,56.28H59.45l2.49,5.42c0.23,0.5,0.73,0.82,1.29,0.82h4.88c0.55,0,1.05-0.32,1.28-0.82L71.93,56.28z"/>
</g>
</svg>
