<?xml version="1.0" encoding="utf-8"?>
<!-- Generator: Adobe Illustrator 23.0.5, SVG Export Plug-In . SVG Version: 6.00 Build 0)  -->
<svg version="1.1" id="Слой_1" xmlns="http://www.w3.org/2000/svg" xmlns:xlink="http://www.w3.org/1999/xlink" x="0px" y="0px"
	 viewBox="0 0 131.37 131.37" style="enable-background:new 0 0 131.37 131.37;" xml:space="preserve">
<style type="text/css">
	.st0{fill:#16535E;}
	.st1{fill:#FFFFFF;}
	.st2{fill:none;stroke:#FFFFFF;stroke-width:3;stroke-linecap:round;stroke-linejoin:round;}
</style>
<g>
	<path class="st0" d="M98.93,115.69H32.44c-2.35,0-4.25-1.9-4.25-4.25V19.94c0-2.35,1.9-4.25,4.25-4.25h66.49
		c2.35,0,4.25,1.9,4.25,4.25v91.49C103.19,113.78,101.28,115.69,98.93,115.69z"/>
	<path class="st1" d="M50.59,76.36v26.11c0,0.77-0.63,1.4-1.4,1.4h-4.2c-0.77,0-1.4-0.63-1.4-1.4V76.36c0-0.77,0.63-1.4,1.4-1.4h4.2
		C49.97,74.96,50.59,75.58,50.59,76.36z"/>
	<path class="st1" d="M87.78,58.98v43.46c0,0.79-0.64,1.42-1.42,1.42h-4.15c-0.79,0-1.42-0.64-1.42-1.42V58.98
		c0-0.79,0.64-1.42,1.42-1.42h4.15C87.14,57.55,87.78,58.19,87.78,58.98z"/>
	<path class="st1" d="M69.19,66.5v35.96c0,0.78-0.63,1.41-1.41,1.41h-4.18c-0.78,0-1.41-0.63-1.41-1.41V66.5
		c0-0.78,0.63-1.41,1.41-1.41h4.18C68.56,65.09,69.19,65.72,69.19,66.5z"/>
	<g>
		<g>
			<polyline class="st2" points="45.05,54.43 66.68,44.45 62.14,54.15 83.08,42.45 			"/>
			<g>
				<polygon class="st1" points="83.95,46.25 87.78,39.83 80.3,39.72 				"/>
			</g>
		</g>
	</g>
</g>
</svg>
