<?xml version="1.0" encoding="utf-8"?>
<!-- Generator: Adobe Illustrator 23.0.5, SVG Export Plug-In . SVG Version: 6.00 Build 0)  -->
<svg version="1.1" id="Слой_1" xmlns="http://www.w3.org/2000/svg" xmlns:xlink="http://www.w3.org/1999/xlink" x="0px" y="0px"
	 viewBox="0 0 131.37 131.37" style="enable-background:new 0 0 131.37 131.37;" xml:space="preserve">
<style type="text/css">
	.st0{fill:#16535E;}
	.st1{fill:none;stroke:#FFFFFF;stroke-width:3;stroke-linecap:round;stroke-linejoin:round;stroke-miterlimit:10;}
	.st2{fill:none;stroke:#FFFFFF;stroke-width:4;stroke-miterlimit:10;}
</style>
<g>
	<path class="st0" d="M103.5,88.16V19.65c0-2.35-1.91-4.26-4.26-4.26H31.08c-2.35,0-4.26,1.91-4.26,4.26v91.1
		c0,2.35,1.91,4.26,4.26,4.26h45.26c1.12,0,2.19-0.44,2.99-1.23l22.9-22.58C103.04,90.4,103.5,89.3,103.5,88.16z"/>
	<line class="st1" x1="77.97" y1="90.26" x2="103.05" y2="90.05"/>
	<line class="st1" x1="77.97" y1="90.26" x2="77.97" y2="114.48"/>
	<line class="st2" x1="39.83" y1="64.18" x2="65.22" y2="64.1"/>
	<line class="st2" x1="78.21" y1="64.11" x2="90.54" y2="64.11"/>
	<line class="st2" x1="39.88" y1="51.68" x2="65.22" y2="51.68"/>
	<line class="st2" x1="78.21" y1="51.68" x2="90.54" y2="51.68"/>
	<line class="st2" x1="39.88" y1="39.25" x2="65.22" y2="39.25"/>
	<line class="st2" x1="78.21" y1="39.25" x2="90.54" y2="39.25"/>
</g>
</svg>
